inDegrees=yes
name=ik_data_2024_11_07_18_01
DataType=double
version=3
OpenSimVersion=4.5.1
endheader
time	pelvis_tilt	pelvis_list	pelvis_rotation	pelvis_tx	pelvis_ty	pelvis_tz	hip_flexion_r	hip_adduction_r	hip_rotation_r	knee_angle_r	knee_angle_r_beta	ankle_angle_r	subtalar_angle_r	mtp_angle_r	hip_flexion_l	hip_adduction_l	hip_rotation_l	knee_angle_l	knee_angle_l_beta	ankle_angle_l	subtalar_angle_l	mtp_angle_l	lumbar_extension	lumbar_bending	lumbar_rotation	arm_flex_r	arm_add_r	arm_rot_r	elbow_flex_r	pro_sup_r	wrist_flex_r	wrist_dev_r	arm_flex_l	arm_add_l	arm_rot_l	elbow_flex_l	pro_sup_l	wrist_flex_l	wrist_dev_l
15.10887	-10.27138701368138	-1.175555390435046	5.923318998965004	0	0.9399999999999999	0	29.94799043452334	-8.584951948298036	17.91510299284183	73.34705231191747	1.280147559475479	-4.930321481355957	0	0	10.59599833576463	-0.144703750941409	-8.548761044201187	0.5109622759048578	0.008917974068023457	-4.930321481355957	0	0	0	0	0	0	-6.794226760529057	0	65.74360303126204	45.63458747369206	0	0	0	-6.794226760529057	0	65.74360303126204	45.63458747369206	0	0
15.113	-10.2488984319388	-1.096828787836819	6.473790245514137	0	0.9399999999999999	0	29.21850909181683	-8.973875671536121	15.65449399664972	69.57118862202144	1.214246305980291	-4.931891585994702	0	0	10.55600405173566	0.02568077255014888	-8.026348509131413	0.5017829881967256	0.008757765274528706	-4.931891585994702	0	0	0	0	0	0	-6.830779125306506	0	65.81315834695771	45.62455663230156	0	0	0	-6.830779125306506	0	65.81315834695771	45.62455663230156	0	0
15.13363	-10.07089524664046	-1.058339317556749	6.7646097839136	0	0.9399999999999999	0	28.17221722002462	-9.393025057016199	13.85203517870158	64.53008457757525	1.126262442469102	-4.93364778899655	0	0	10.38886816764568	0.1011166840197421	-7.746734995448572	0.5231704825665979	0.009131047470034728	-4.93364778899655	0	0	0	0	0	0	-6.873326228740774	0	65.89348711056398	45.61318050940699	0	0	0	-6.873326228740774	0	65.89348711056398	45.61318050940699	0	0
15.19539	-9.942531444073012	-1.161560311638152	6.018048812968318	0	0.9399999999999999	0	27.85778460447744	-8.699011867137655	12.84399270399812	60.3206583380417	1.052794094969398	-4.935001391985664	0	0	10.27133084974237	-0.1488547966883021	-8.465363625360361	0.5151733171224826	0.008991470602208201	-4.935001391985664	0	0	0	0	0	0	-6.905591540968146	0	65.954620762706	45.60445843480306	0	0	0	-6.905591540968146	0	65.954620762706	45.60445843480306	0	0
15.25099	-9.764440672207936	-1.203868930756462	5.683692318449151	0	0.9399999999999999	0	26.83098819778148	-7.804586672966443	11.45033126526873	55.79045224131996	0.9737270827876834	-4.936317816501562	0	0	10.09901009136695	-0.2618439876177194	-8.782830386114989	0.5181852511760262	0.009044038768295475	-4.936317816501562	0	0	0	0	0	0	-6.937131284355658	0	66.0144302000828	45.59594185254752	0	0	0	-6.937131284355658	0	66.0144302000828	45.59594185254752	0	0
15.25692	-9.523913567351423	-1.253630209134668	5.326329227920874	0	0.9399999999999999	0	26.04771159644032	-6.982233140566486	10.49792810402708	51.66512745006605	0.9017265824661548	-4.937476646632643	0	0	9.859809347085033	-0.4006909139266376	-9.130593298033357	0.5129967808468505	0.008953482877909326	-4.937476646632643	0	0	0	0	0	0	-6.964533004375727	0	66.06665376873663	45.58845743711614	0	0	0	-6.964533004375727	0	66.06665376873663	45.58845743711614	0	0
15.31336	-9.187308811589894	-1.200933967444507	5.72182219740628	0	0.9399999999999999	0	24.82289767685599	-6.471652205182791	9.080764094439887	47.46902859130466	0.828490841641592	-4.937914664304873	0	0	9.525728624711688	-0.3108500444454521	-8.743046566021956	0.5188269953339781	0.009055239316807176	-4.937914664304873	0	0	0	0	0	0	-6.97094673311278	0	66.08068786038999	45.58594745695628	0	0	0	-6.97094673311278	0	66.08068786038999	45.58594745695628	0	0
15.43407	-8.856725487534462	-1.070878403405628	6.67364526963379	0	0.9399999999999999	0	23.46264515320467	-6.097924868749901	7.309220359880904	43.50619162359928	0.7593262888353849	-4.938373964813567	0	0	9.180511447296421	-0.07070605809461113	-7.828730420611175	0.5115684487207627	0.008928553779497082	-4.938373964813567	0	0	0	0	0	0	-6.977711401654688	0	66.09547903914491	45.58330860183735	0	0	0	-6.977711401654688	0	66.09547903914491	45.58330860183735	0	0
15.43683	-8.49138561241752	-0.9891538199375631	7.241213940621454	0	0.9399999999999999	0	22.13417959839132	-5.471230052054426	6.050262785098619	39.70648081812176	0.6930088246561965	-4.938518001459035	0	0	8.823537352841818	0.05276318861084035	-7.281490197967659	0.5322940936664914	0.00929028452339937	-4.938518001459035	0	0	0	0	0	0	-6.979842157919411	0	66.10013020330594	45.58248033681861	0	0	0	-6.979842157919411	0	66.10013020330594	45.58248033681861	0	0
15.43965	-8.089362373634124	-0.9957840105441484	7.246457559651546	0	0.9399999999999999	0	20.91602241924532	-4.546329536773627	5.487033599222347	36.43355935191764	0.6358855689117342	-4.938660485899181	0	0	8.425841386488285	-0.006366054625105327	-7.277091535113088	0.5294654013158046	0.009240914528353907	-4.938660485899181	0	0	0	0	0	0	-6.981953515152759	0	66.10473829833843	45.5816603242875	0	0	0	-6.981953515152759	0	66.10473829833843	45.5816603242875	0	0
15.49232	-7.756756805069087	-0.9632239575053967	7.500702376143588	0	0.9399999999999999	0	19.81471333005821	-3.716553726585368	4.818848635778592	33.08678475804218	0.5774733329265114	-4.938799579566317	0	0	8.092732053685479	0.01918945466343677	-7.024740087234356	0.525585465077961	0.009173196866236095	-4.938799579566317	0	0	0	0	0	0	-6.984018813044889	0	66.10924470332472	45.58085910183781	0	0	0	-6.984018813044889	0	66.10924470332472	45.58085910183781	0	0
15.54685	-7.342126631057187	-0.9035660840917337	7.9186670855116	0	0.9399999999999999	0	18.59098325851496	-3.018826839851367	4.141125296644736	29.45853749432069	0.5141484720980963	-4.938940372707878	0	0	7.670134629090374	0.08082956195697981	-6.617322517371792	0.5239877755130354	0.009145311922903387	-4.938940372707878	0	0	0	0	0	0	-6.986115873640792	0	66.11381763352279	45.58004715881342	0	0	0	-6.986115873640792	0	66.11381763352279	45.58004715881342	0	0
15.61364	-7.041600702519625	-0.8734517578049722	8.162414755219327	0	0.9399999999999999	0	17.46180326539162	-2.20757345946399	3.748137906365271	26.17031702353556	0.4567581983514178	-4.939076387948497	0	0	7.373824798053467	0.09604199291063618	-6.379374651201382	0.5254482857150993	0.00917080263468837	-4.939076387948497	0	0	0	0	0	0	-6.988146600801929	0	66.11824423820723	45.57926200488036	0	0	0	-6.988146600801929	0	66.11824423820723	45.57926200488036	0	0
15.61818	-6.688649001954152	-0.8562182069236275	8.275674591387613	0	0.9399999999999999	0	16.44235201533421	-1.381541423673298	3.591747110546703	23.05456425579723	0.4023780538762578	-4.939215807793451	0	0	7.017758921141836	0.07760713405576808	-6.269744051377428	0.5262578450382972	0.00918493211036839	-4.939215807793451	0	0	0	0	0	0	-6.990229007637541	0	66.12278467006146	45.57845676347334	0	0	0	-6.990229007637541	0	66.12278467006146	45.57845676347334	0	0
15.66342	-6.361138281834619	-0.8491346569043291	8.363731116730479	0	0.9399999999999999	0	15.54986808460608	-0.6018159131507964	3.543506511224122	20.30465945180167	0.3543831609301261	-4.939354924936789	0	0	6.688889931996477	0.0489694762800082	-6.179748387909068	0.5205452149726217	0.009085227906773933	-4.939354924936789	0	0	0	0	0	0	-6.992309134141033	0	66.12732037360368	45.57765270878361	0	0	0	-6.992309134141033	0	66.12732037360368	45.57765270878361	0	0
15.73149	-6.059219999477096	-0.9078824479874962	7.91254362227495	0	0.9399999999999999	0	14.76551323564777	0.3704626754274241	4.077041541602754	17.71129685221934	0.309120444869335	-4.939493423734588	0	0	6.394962894091483	-0.1034538978714652	-6.625065640950504	0.5209620600595689	0.009092503226011924	-4.939493423734588	0	0	0	0	0	0	-6.994383096951255	0	66.13184228902767	45.57685159530533	0	0	0	-6.994383096951255	0	66.13184228902767	45.57685159530533	0	0
15.79361	-5.81834938969701	-0.8747667560316158	8.188866289034198	0	0.9399999999999999	0	13.96010334969061	0.9838387468407302	4.006517338155083	15.13404873410617	0.2641389795674324	-4.939631533076708	0	0	6.157901502008365	-0.07536291385876182	-6.348827019482085	0.5198238715593005	0.009072638089173905	-4.939631533076708	0	0	0	0	0	0	-6.996455739861354	0	66.13635994689183	45.57605198436942	0	0	0	-6.996455739861354	0	66.13635994689183	45.57605198436942	0	0
15.79761	-5.487811825717224	-0.8857265289137897	8.054955910008935	0	0.9399999999999999	0	13.1344623403452	1.710796559066856	4.333005603052596	13.08857166894051	0.2284386700062611	-4.939795337192152	0	0	5.822233722336024	-0.14506612917504	-6.48527423658246	0.5164899337981402	0.009014449898185088	-4.939795337192152	0	0	0	0	0	0	-6.998912055806502	0	66.14171743453251	45.57510332485066	0	0	0	-6.998912055806502	0	66.14171743453251	45.57510332485066	0	0
15.84986	-5.267875618733208	-0.867601300422742	8.270605312082759	0	0.9399999999999999	0	12.37743077525414	2.19930607416937	4.383194205335377	11.01339654196948	0.1922200314851252	-4.939924037197318	0	0	5.612565174556777	-0.1398674198410017	-6.267165408478427	0.5183551039662816	0.009047003258729132	-4.939924037197318	0	0	0	0	0	0	-7.000853238369176	0	66.14594547738623	45.57435659847011	0	0	0	-7.000853238369176	0	66.14594547738623	45.57435659847011	0	0
15.91339	-4.983135049804127	-0.870618317466516	8.269040963837408	0	0.9399999999999999	0	11.6033044858679	2.707858474365636	4.630384834837241	9.27211721838769	0.1618289740917233	-4.940049923128977	0	0	5.329000076651695	-0.1836306931272401	-6.272019366799463	0.5152266117729989	0.008992400769333409	-4.940049923128977	0	0	0	0	0	0	-7.002754806737871	0	66.15008684584137	45.57362563803328	0	0	0	-7.002754806737871	0	66.15008684584137	45.57362563803328	0	0
15.96815	-4.72241104165601	-0.8059145321922455	8.730321966356446	0	0.9399999999999999	0	10.92836444104726	2.999856781618228	4.433028731362207	7.762447529458397	0.1354802674023486	-4.940171289490185	0	0	5.060449513467661	-0.1180997013196699	-5.814478762869286	0.5156286565684476	0.008999417774754496	-4.940171289490185	0	0	0	0	0	0	-7.004594718243967	0	66.15409065121806	45.57292008002339	0	0	0	-7.004594718243967	0	66.15409065121806	45.57292008002339	0	0
15.97893	-4.514089215155787	-0.7424484946927888	9.204922922416147	0	0.9399999999999999	0	10.29856346426324	3.27193442764717	4.229311664065897	6.326216292714973	0.1104133035011856	-4.940291484451689	0	0	4.84743015296703	-0.04781232994378271	-5.346523489538637	0.5176831003250644	0.0090352745826045	-4.940291484451689	0	0	0	0	0	0	-7.006420218657598	0	66.15806218196879	45.57222075939163	0	0	0	-7.006420218657598	0	66.15806218196879	45.57222075939163	0	0
